<svg id="visual" viewBox="0 0 960 300" width="960" height="300" xmlns="http://www.w3.org/2000/svg" xmlns:xlink="http://www.w3.org/1999/xlink" version="1.1"><rect x="0" y="0" width="960" height="300" fill="#1b1a1a"></rect><path d="M0 206L16 204.7C32 203.3 64 200.7 96 199C128 197.3 160 196.7 192 196.2C224 195.7 256 195.3 288 197.2C320 199 352 203 384 204.3C416 205.7 448 204.3 480 203.7C512 203 544 203 576 204.2C608 205.3 640 207.7 672 206.3C704 205 736 200 768 202C800 204 832 213 864 213.5C896 214 928 206 944 202L960 198L960 301L944 301C928 301 896 301 864 301C832 301 800 301 768 301C736 301 704 301 672 301C640 301 608 301 576 301C544 301 512 301 480 301C448 301 416 301 384 301C352 301 320 301 288 301C256 301 224 301 192 301C160 301 128 301 96 301C64 301 32 301 16 301L0 301Z" fill="#ea4c89"></path><path d="M0 247L16 243.3C32 239.7 64 232.3 96 227.7C128 223 160 221 192 224.3C224 227.7 256 236.3 288 239C320 241.7 352 238.3 384 236.3C416 234.3 448 233.7 480 235C512 236.3 544 239.7 576 237.7C608 235.7 640 228.3 672 226.8C704 225.3 736 229.7 768 232.2C800 234.7 832 235.3 864 235.5C896 235.7 928 235.3 944 235.2L960 235L960 301L944 301C928 301 896 301 864 301C832 301 800 301 768 301C736 301 704 301 672 301C640 301 608 301 576 301C544 301 512 301 480 301C448 301 416 301 384 301C352 301 320 301 288 301C256 301 224 301 192 301C160 301 128 301 96 301C64 301 32 301 16 301L0 301Z" fill="#ff6d53"></path><path d="M0 261L16 261C32 261 64 261 96 261.2C128 261.3 160 261.7 192 261.5C224 261.3 256 260.7 288 261.8C320 263 352 266 384 268C416 270 448 271 480 269.3C512 267.7 544 263.3 576 260.2C608 257 640 255 672 256.3C704 257.7 736 262.3 768 262.8C800 263.3 832 259.7 864 259.5C896 259.3 928 262.7 944 264.3L960 266L960 301L944 301C928 301 896 301 864 301C832 301 800 301 768 301C736 301 704 301 672 301C640 301 608 301 576 301C544 301 512 301 480 301C448 301 416 301 384 301C352 301 320 301 288 301C256 301 224 301 192 301C160 301 128 301 96 301C64 301 32 301 16 301L0 301Z" fill="#ffa800"></path></svg>